# xmcd CD Database Entry
#
# Track frame offsets:
# 150
# 9421
# 33668
# 52667
# 70047
# 92802
# 108394
# 131511
# 153707
# 177547
#
# Disc length: 2636 seconds
#
# Revision: 2
# Processed by: cddbd v1.4PL0 Copyright (c) Steve Scherf et al.
# Submitted via: tcd 2.0b
#
DISCID=7e0a4a0a
DTITLE=Alanis Morissette - Costa Mesa 7/26/2003 - Disk 1
DYEAR=1900
DGENRE=
TTITLE0=01 - Intro
TTITLE1=All I really want
TTITLE2=21 Things I want in a lover
TTITLE3=Right through you
TTITLE4=Hand in my pocket
TTITLE5=8 easy steps
TTITLE6=Hands clean
TTITLE7=So called chaos
TTITLE8=This grudge
TTITLE9=Head over feet
EXTD=
EXTT0=
EXTT1=
EXTT2=
EXTT3=
EXTT4=
EXTT5=
EXTT6=
EXTT7=
EXTT8=
EXTT9=
PLAYORDER=
